# xmcd
# Track frame offsets:
# 150
# 18404
# 44292
# 68665
#
# Disc length: 1320 seconds
# Revision: 1
# Processed by: cddbd v1.5.2PL0 Copyright (c) Steve Scherf et al.
# Submitted via: VisiTrax 2.11.3.279 - For more info visit www.synapsa.com
#
DISCID=2a052604
DTITLE=Christina Aguilera - Hurt
DYEAR=2006
DGENRE=Blues
TTITLE0=Hurt (Album Version)
TTITLE1=Hurt (Jake Ridley Mix)
TTITLE2=Ain't No Other Man (The Shapeshifters Mixshow)
TTITLE3=Ain't No Other Man (Junior Vasques Club Mix)
EXTD=
EXTT0=
EXTT1=
EXTT2=
EXTT3=
PLAYORDER=
